<mxfile host="app.diagrams.net" modified="2023-09-23T09:50:56.615Z" agent="Mozilla/5.0 (Windows NT 10.0; Win64; x64) AppleWebKit/537.36 (KHTML, like Gecko) Chrome/116.0.0.0 Safari/537.36" etag="rHXhWKUI--AELg9ZzfCQ" version="21.8.1" type="device">
  <diagram id="q3g3mbZBlcyyUVLOELqI" name="Page-1">
    <mxGraphModel dx="793" dy="774" grid="1" gridSize="10" guides="1" tooltips="1" connect="1" arrows="1" fold="1" page="1" pageScale="1" pageWidth="850" pageHeight="1100" math="0" shadow="0">
      <root>
        <mxCell id="0" />
        <mxCell id="1" parent="0" />
        <mxCell id="0JWoNW7KrvYmO7oY0jJp-1" style="edgeStyle=orthogonalEdgeStyle;rounded=0;orthogonalLoop=1;jettySize=auto;html=1;entryX=0.5;entryY=0;entryDx=0;entryDy=0;" parent="1" source="0JWoNW7KrvYmO7oY0jJp-5" target="0JWoNW7KrvYmO7oY0jJp-7" edge="1">
          <mxGeometry relative="1" as="geometry" />
        </mxCell>
        <mxCell id="0JWoNW7KrvYmO7oY0jJp-2" style="edgeStyle=orthogonalEdgeStyle;rounded=0;orthogonalLoop=1;jettySize=auto;html=1;entryX=0;entryY=0.5;entryDx=0;entryDy=0;" parent="1" source="0JWoNW7KrvYmO7oY0jJp-5" target="0JWoNW7KrvYmO7oY0jJp-9" edge="1">
          <mxGeometry relative="1" as="geometry">
            <mxPoint x="990" y="902.5" as="targetPoint" />
            <Array as="points">
              <mxPoint x="960" y="672.5" />
              <mxPoint x="960" y="872.5" />
            </Array>
          </mxGeometry>
        </mxCell>
        <mxCell id="0JWoNW7KrvYmO7oY0jJp-3" style="edgeStyle=orthogonalEdgeStyle;rounded=0;orthogonalLoop=1;jettySize=auto;html=1;" parent="1" source="0JWoNW7KrvYmO7oY0jJp-5" edge="1">
          <mxGeometry relative="1" as="geometry">
            <mxPoint x="1220" y="672.5" as="targetPoint" />
          </mxGeometry>
        </mxCell>
        <mxCell id="0JWoNW7KrvYmO7oY0jJp-4" style="edgeStyle=orthogonalEdgeStyle;rounded=0;orthogonalLoop=1;jettySize=auto;html=1;entryX=0.5;entryY=1;entryDx=0;entryDy=0;" parent="1" source="0JWoNW7KrvYmO7oY0jJp-5" target="0JWoNW7KrvYmO7oY0jJp-12" edge="1">
          <mxGeometry relative="1" as="geometry" />
        </mxCell>
        <mxCell id="0JWoNW7KrvYmO7oY0jJp-5" value="Home Page" style="rounded=0;whiteSpace=wrap;html=1;fillColor=#FFFFB3;strokeColor=#36393d;" parent="1" vertex="1">
          <mxGeometry x="1000" y="642.5" width="120" height="60" as="geometry" />
        </mxCell>
        <mxCell id="0JWoNW7KrvYmO7oY0jJp-6" value="" style="edgeStyle=orthogonalEdgeStyle;rounded=0;orthogonalLoop=1;jettySize=auto;html=1;" parent="1" source="0JWoNW7KrvYmO7oY0jJp-7" target="0JWoNW7KrvYmO7oY0jJp-9" edge="1">
          <mxGeometry relative="1" as="geometry" />
        </mxCell>
        <mxCell id="0JWoNW7KrvYmO7oY0jJp-7" value="Brand" style="rounded=0;whiteSpace=wrap;html=1;fillColor=#dae8fc;strokeColor=#6c8ebf;" parent="1" vertex="1">
          <mxGeometry x="1000" y="742.5" width="120" height="60" as="geometry" />
        </mxCell>
        <mxCell id="0JWoNW7KrvYmO7oY0jJp-8" style="edgeStyle=orthogonalEdgeStyle;rounded=0;orthogonalLoop=1;jettySize=auto;html=1;entryX=0;entryY=0.5;entryDx=0;entryDy=0;" parent="1" source="0JWoNW7KrvYmO7oY0jJp-9" target="0JWoNW7KrvYmO7oY0jJp-14" edge="1">
          <mxGeometry relative="1" as="geometry">
            <mxPoint x="1210" y="902.5" as="targetPoint" />
          </mxGeometry>
        </mxCell>
        <mxCell id="0JWoNW7KrvYmO7oY0jJp-9" value="Product" style="rounded=0;whiteSpace=wrap;html=1;fillColor=#dae8fc;strokeColor=#6c8ebf;" parent="1" vertex="1">
          <mxGeometry x="1000" y="842.5" width="120" height="60" as="geometry" />
        </mxCell>
        <mxCell id="0JWoNW7KrvYmO7oY0jJp-10" style="edgeStyle=orthogonalEdgeStyle;rounded=0;orthogonalLoop=1;jettySize=auto;html=1;entryX=0;entryY=0.5;entryDx=0;entryDy=0;" parent="1" source="0JWoNW7KrvYmO7oY0jJp-11" target="0JWoNW7KrvYmO7oY0jJp-13" edge="1">
          <mxGeometry relative="1" as="geometry">
            <mxPoint x="1420" y="672.5" as="targetPoint" />
            <Array as="points">
              <mxPoint x="1350" y="672.5" />
              <mxPoint x="1350" y="672.5" />
            </Array>
          </mxGeometry>
        </mxCell>
        <mxCell id="0JWoNW7KrvYmO7oY0jJp-11" value="" style="rounded=0;whiteSpace=wrap;html=1;" parent="1" vertex="1">
          <mxGeometry x="1220" y="642.5" width="120" height="150" as="geometry" />
        </mxCell>
        <mxCell id="0JWoNW7KrvYmO7oY0jJp-12" value="Introduce" style="rounded=0;whiteSpace=wrap;html=1;fillColor=#dae8fc;strokeColor=#6c8ebf;" parent="1" vertex="1">
          <mxGeometry x="1000" y="507.5" width="120" height="60" as="geometry" />
        </mxCell>
        <mxCell id="0JWoNW7KrvYmO7oY0jJp-103" value="Click &quot;cart&quot; icon" style="edgeStyle=orthogonalEdgeStyle;rounded=0;orthogonalLoop=1;jettySize=auto;html=1;" parent="1" source="0JWoNW7KrvYmO7oY0jJp-13" target="0JWoNW7KrvYmO7oY0jJp-102" edge="1">
          <mxGeometry relative="1" as="geometry" />
        </mxCell>
        <mxCell id="0JWoNW7KrvYmO7oY0jJp-13" value="Post Login" style="rounded=0;whiteSpace=wrap;html=1;" parent="1" vertex="1">
          <mxGeometry x="1480" y="642.5" width="120" height="60" as="geometry" />
        </mxCell>
        <mxCell id="0JWoNW7KrvYmO7oY0jJp-14" value="Product Detail" style="rounded=0;whiteSpace=wrap;html=1;fillColor=#dae8fc;strokeColor=#6c8ebf;" parent="1" vertex="1">
          <mxGeometry x="1220" y="842.5" width="120" height="60" as="geometry" />
        </mxCell>
        <mxCell id="0JWoNW7KrvYmO7oY0jJp-15" value="" style="endArrow=none;html=1;rounded=0;" parent="1" edge="1">
          <mxGeometry width="50" height="50" relative="1" as="geometry">
            <mxPoint x="960.0000000000002" y="942.5" as="sourcePoint" />
            <mxPoint x="960.0000000000002" y="872.5" as="targetPoint" />
          </mxGeometry>
        </mxCell>
        <mxCell id="0JWoNW7KrvYmO7oY0jJp-16" value="" style="endArrow=classic;html=1;rounded=0;entryX=0.5;entryY=1;entryDx=0;entryDy=0;" parent="1" target="0JWoNW7KrvYmO7oY0jJp-14" edge="1">
          <mxGeometry width="50" height="50" relative="1" as="geometry">
            <mxPoint x="960.0000000000002" y="942.5" as="sourcePoint" />
            <mxPoint x="1400" y="972.5" as="targetPoint" />
            <Array as="points">
              <mxPoint x="1280" y="942.5" />
            </Array>
          </mxGeometry>
        </mxCell>
        <mxCell id="0JWoNW7KrvYmO7oY0jJp-17" value="Forgot password" style="rounded=0;whiteSpace=wrap;html=1;" parent="1" vertex="1">
          <mxGeometry x="1220" y="512.5" width="120" height="60" as="geometry" />
        </mxCell>
        <mxCell id="0JWoNW7KrvYmO7oY0jJp-18" value="" style="rounded=0;whiteSpace=wrap;html=1;" parent="1" vertex="1">
          <mxGeometry x="1480" y="320" width="120" height="252.5" as="geometry" />
        </mxCell>
        <mxCell id="0JWoNW7KrvYmO7oY0jJp-19" value="Customer profile&lt;br&gt;&lt;br&gt;&lt;br&gt;&lt;br&gt;&lt;br&gt;&lt;br&gt;&lt;br&gt;&lt;br&gt;" style="text;html=1;strokeColor=none;fillColor=none;align=center;verticalAlign=middle;whiteSpace=wrap;rounded=0;" parent="1" vertex="1">
          <mxGeometry x="1500" y="380" width="90" height="30" as="geometry" />
        </mxCell>
        <mxCell id="0JWoNW7KrvYmO7oY0jJp-20" value="Account" style="rounded=0;whiteSpace=wrap;html=1;" parent="1" vertex="1">
          <mxGeometry x="1495" y="420" width="95" height="40" as="geometry" />
        </mxCell>
        <mxCell id="0JWoNW7KrvYmO7oY0jJp-21" value="" style="endArrow=classic;html=1;rounded=0;exitX=0.5;exitY=0;exitDx=0;exitDy=0;entryX=0.5;entryY=1;entryDx=0;entryDy=0;" parent="1" source="0JWoNW7KrvYmO7oY0jJp-13" target="0JWoNW7KrvYmO7oY0jJp-18" edge="1">
          <mxGeometry width="50" height="50" relative="1" as="geometry">
            <mxPoint x="1460" y="532.5" as="sourcePoint" />
            <mxPoint x="1510" y="482.5" as="targetPoint" />
          </mxGeometry>
        </mxCell>
        <mxCell id="0JWoNW7KrvYmO7oY0jJp-22" value="" style="endArrow=classic;html=1;rounded=0;entryX=1;entryY=0.5;entryDx=0;entryDy=0;exitX=0;exitY=0.5;exitDx=0;exitDy=0;" parent="1" source="0JWoNW7KrvYmO7oY0jJp-20" target="0JWoNW7KrvYmO7oY0jJp-24" edge="1">
          <mxGeometry width="50" height="50" relative="1" as="geometry">
            <mxPoint x="1400" y="422.5" as="sourcePoint" />
            <mxPoint x="1380" y="542.5" as="targetPoint" />
          </mxGeometry>
        </mxCell>
        <mxCell id="0JWoNW7KrvYmO7oY0jJp-23" value="Click&lt;br&gt;&amp;nbsp;change&lt;br&gt;&amp;nbsp;password" style="edgeLabel;html=1;align=center;verticalAlign=middle;resizable=0;points=[];" parent="0JWoNW7KrvYmO7oY0jJp-22" vertex="1" connectable="0">
          <mxGeometry x="0.1244" relative="1" as="geometry">
            <mxPoint x="-18" as="offset" />
          </mxGeometry>
        </mxCell>
        <mxCell id="0JWoNW7KrvYmO7oY0jJp-24" value="Change password" style="rounded=0;whiteSpace=wrap;html=1;" parent="1" vertex="1">
          <mxGeometry x="1220" y="410" width="120" height="60" as="geometry" />
        </mxCell>
        <mxCell id="0JWoNW7KrvYmO7oY0jJp-25" value="" style="endArrow=classic;html=1;rounded=0;exitX=0.5;exitY=0;exitDx=0;exitDy=0;entryX=0.5;entryY=1;entryDx=0;entryDy=0;" parent="1" source="0JWoNW7KrvYmO7oY0jJp-11" target="0JWoNW7KrvYmO7oY0jJp-17" edge="1">
          <mxGeometry width="50" height="50" relative="1" as="geometry">
            <mxPoint x="1240" y="592.5" as="sourcePoint" />
            <mxPoint x="1290" y="542.5" as="targetPoint" />
          </mxGeometry>
        </mxCell>
        <mxCell id="0JWoNW7KrvYmO7oY0jJp-26" value="" style="endArrow=classic;html=1;rounded=0;exitX=0.5;exitY=0;exitDx=0;exitDy=0;entryX=0.5;entryY=1;entryDx=0;entryDy=0;" parent="1" source="0JWoNW7KrvYmO7oY0jJp-17" target="0JWoNW7KrvYmO7oY0jJp-24" edge="1">
          <mxGeometry width="50" height="50" relative="1" as="geometry">
            <mxPoint x="1350" y="532.5" as="sourcePoint" />
            <mxPoint x="1400" y="482.5" as="targetPoint" />
          </mxGeometry>
        </mxCell>
        <mxCell id="0JWoNW7KrvYmO7oY0jJp-27" value="Logout" style="rounded=0;whiteSpace=wrap;html=1;" parent="1" vertex="1">
          <mxGeometry x="1495" y="522.5" width="95" height="30" as="geometry" />
        </mxCell>
        <mxCell id="0JWoNW7KrvYmO7oY0jJp-28" value="Login" style="rounded=0;whiteSpace=wrap;html=1;" parent="1" vertex="1">
          <mxGeometry x="1230" y="692.5" width="100" height="40" as="geometry" />
        </mxCell>
        <mxCell id="0JWoNW7KrvYmO7oY0jJp-29" value="Register" style="rounded=0;whiteSpace=wrap;html=1;fillColor=#dae8fc;strokeColor=#6c8ebf;" parent="1" vertex="1">
          <mxGeometry x="1230" y="742.5" width="100" height="40" as="geometry" />
        </mxCell>
        <mxCell id="0JWoNW7KrvYmO7oY0jJp-30" value="Authenticator" style="text;html=1;strokeColor=none;fillColor=none;align=center;verticalAlign=middle;whiteSpace=wrap;rounded=0;" parent="1" vertex="1">
          <mxGeometry x="1250" y="657.5" width="60" height="30" as="geometry" />
        </mxCell>
        <mxCell id="0JWoNW7KrvYmO7oY0jJp-31" value="Management" style="rounded=0;whiteSpace=wrap;html=1;" parent="1" vertex="1">
          <mxGeometry x="1495" y="472.5" width="92.5" height="40" as="geometry" />
        </mxCell>
        <mxCell id="0JWoNW7KrvYmO7oY0jJp-32" value="Click &quot;giới thiệu&quot; navbar" style="text;html=1;strokeColor=none;fillColor=none;align=center;verticalAlign=middle;whiteSpace=wrap;rounded=0;" parent="1" vertex="1">
          <mxGeometry x="940" y="597.5" width="120" height="30" as="geometry" />
        </mxCell>
        <mxCell id="0JWoNW7KrvYmO7oY0jJp-33" value="Click &quot;thương hiệu&quot; navbar" style="text;html=1;strokeColor=none;fillColor=none;align=center;verticalAlign=middle;whiteSpace=wrap;rounded=0;" parent="1" vertex="1">
          <mxGeometry x="1060" y="712.5" width="100" height="30" as="geometry" />
        </mxCell>
        <mxCell id="0JWoNW7KrvYmO7oY0jJp-34" value="Select brand" style="text;html=1;strokeColor=none;fillColor=none;align=center;verticalAlign=middle;whiteSpace=wrap;rounded=0;" parent="1" vertex="1">
          <mxGeometry x="1060" y="802.5" width="70" height="30" as="geometry" />
        </mxCell>
        <mxCell id="0JWoNW7KrvYmO7oY0jJp-35" value="Click product element" style="text;html=1;strokeColor=none;fillColor=none;align=center;verticalAlign=middle;whiteSpace=wrap;rounded=0;rotation=-90;" parent="1" vertex="1">
          <mxGeometry x="880" y="857.5" width="120" height="30" as="geometry" />
        </mxCell>
        <mxCell id="0JWoNW7KrvYmO7oY0jJp-36" value="Click product&#39;s image" style="text;html=1;strokeColor=none;fillColor=none;align=center;verticalAlign=middle;whiteSpace=wrap;rounded=0;" parent="1" vertex="1">
          <mxGeometry x="1070" y="942.5" width="120" height="30" as="geometry" />
        </mxCell>
        <mxCell id="0JWoNW7KrvYmO7oY0jJp-37" value="Select a product" style="text;html=1;strokeColor=none;fillColor=none;align=center;verticalAlign=middle;whiteSpace=wrap;rounded=0;" parent="1" vertex="1">
          <mxGeometry x="1120" y="847.5" width="100" height="30" as="geometry" />
        </mxCell>
        <mxCell id="0JWoNW7KrvYmO7oY0jJp-38" value="Click &quot;user&quot; icon" style="text;html=1;strokeColor=none;fillColor=none;align=center;verticalAlign=middle;whiteSpace=wrap;rounded=0;" parent="1" vertex="1">
          <mxGeometry x="1125" y="642.5" width="90" height="30" as="geometry" />
        </mxCell>
        <mxCell id="0JWoNW7KrvYmO7oY0jJp-39" value="Click forgot password" style="text;html=1;strokeColor=none;fillColor=none;align=center;verticalAlign=middle;whiteSpace=wrap;rounded=0;" parent="1" vertex="1">
          <mxGeometry x="1160" y="597.5" width="120" height="30" as="geometry" />
        </mxCell>
        <mxCell id="0JWoNW7KrvYmO7oY0jJp-40" value="Verified" style="text;html=1;strokeColor=none;fillColor=none;align=center;verticalAlign=middle;whiteSpace=wrap;rounded=0;" parent="1" vertex="1">
          <mxGeometry x="1220" y="482.5" width="60" height="30" as="geometry" />
        </mxCell>
        <mxCell id="0JWoNW7KrvYmO7oY0jJp-41" value="Login success" style="text;html=1;strokeColor=none;fillColor=none;align=center;verticalAlign=middle;whiteSpace=wrap;rounded=0;" parent="1" vertex="1">
          <mxGeometry x="1370" y="642.5" width="80" height="30" as="geometry" />
        </mxCell>
        <mxCell id="0JWoNW7KrvYmO7oY0jJp-42" value="Click &quot;user&quot; icon" style="text;html=1;strokeColor=none;fillColor=none;align=center;verticalAlign=middle;whiteSpace=wrap;rounded=0;" parent="1" vertex="1">
          <mxGeometry x="1450" y="597.5" width="90" height="30" as="geometry" />
        </mxCell>
        <mxCell id="0JWoNW7KrvYmO7oY0jJp-65" value="" style="rounded=0;whiteSpace=wrap;html=1;fillColor=#FFFFFF;strokeColor=#000000;" parent="1" vertex="1">
          <mxGeometry x="1730" y="320" width="130" height="157.5" as="geometry" />
        </mxCell>
        <mxCell id="0JWoNW7KrvYmO7oY0jJp-66" value="Receiver info" style="rounded=0;whiteSpace=wrap;html=1;" parent="1" vertex="1">
          <mxGeometry x="1745" y="426.25" width="100" height="40" as="geometry" />
        </mxCell>
        <mxCell id="0JWoNW7KrvYmO7oY0jJp-67" value="Product info" style="rounded=0;whiteSpace=wrap;html=1;" parent="1" vertex="1">
          <mxGeometry x="1745" y="367.5" width="100" height="45" as="geometry" />
        </mxCell>
        <mxCell id="0JWoNW7KrvYmO7oY0jJp-68" value="Order detail" style="text;html=1;strokeColor=none;fillColor=none;align=center;verticalAlign=middle;whiteSpace=wrap;rounded=0;" parent="1" vertex="1">
          <mxGeometry x="1735" y="335" width="120" height="30" as="geometry" />
        </mxCell>
        <mxCell id="0JWoNW7KrvYmO7oY0jJp-69" value="" style="rounded=0;whiteSpace=wrap;html=1;dashed=1;" parent="1" vertex="1">
          <mxGeometry x="1715" y="750" width="140" height="260" as="geometry" />
        </mxCell>
        <mxCell id="0JWoNW7KrvYmO7oY0jJp-70" value="Guest" style="rounded=0;whiteSpace=wrap;html=1;dashed=1;strokeWidth=0;fillColor=#dae8fc;strokeColor=#6c8ebf;" parent="1" vertex="1">
          <mxGeometry x="1746.5" y="887.5" width="77" height="45" as="geometry" />
        </mxCell>
        <mxCell id="0JWoNW7KrvYmO7oY0jJp-71" value="Customer" style="rounded=0;whiteSpace=wrap;html=1;dashed=1;strokeWidth=0;" parent="1" vertex="1">
          <mxGeometry x="1746.5" y="952.5" width="77" height="35" as="geometry" />
        </mxCell>
        <mxCell id="0JWoNW7KrvYmO7oY0jJp-72" value="Flat page" style="rounded=0;whiteSpace=wrap;html=1;strokeWidth=1;perimeterSpacing=1;" parent="1" vertex="1">
          <mxGeometry x="1745" y="827.5" width="80" height="40" as="geometry" />
        </mxCell>
        <mxCell id="0JWoNW7KrvYmO7oY0jJp-73" value="Start page" style="rounded=0;whiteSpace=wrap;html=1;dashed=1;strokeWidth=0;fillColor=#FFFFB3;strokeColor=#FFFFB3;" parent="1" vertex="1">
          <mxGeometry x="1746.5" y="762.5" width="77" height="45" as="geometry" />
        </mxCell>
        <mxCell id="0JWoNW7KrvYmO7oY0jJp-101" value="Click &quot;xem chi tiết&quot;" style="edgeStyle=orthogonalEdgeStyle;rounded=0;orthogonalLoop=1;jettySize=auto;html=1;entryX=0.003;entryY=0.445;entryDx=0;entryDy=0;entryPerimeter=0;" parent="1" source="0JWoNW7KrvYmO7oY0jJp-96" target="0JWoNW7KrvYmO7oY0jJp-65" edge="1">
          <mxGeometry relative="1" as="geometry" />
        </mxCell>
        <mxCell id="0JWoNW7KrvYmO7oY0jJp-96" value="Order list" style="rounded=0;whiteSpace=wrap;html=1;" parent="1" vertex="1">
          <mxGeometry x="1495" y="370" width="95" height="40" as="geometry" />
        </mxCell>
        <mxCell id="0JWoNW7KrvYmO7oY0jJp-105" value="Click checkout button" style="edgeStyle=orthogonalEdgeStyle;rounded=0;orthogonalLoop=1;jettySize=auto;html=1;" parent="1" source="0JWoNW7KrvYmO7oY0jJp-102" target="0JWoNW7KrvYmO7oY0jJp-104" edge="1">
          <mxGeometry relative="1" as="geometry" />
        </mxCell>
        <mxCell id="0JWoNW7KrvYmO7oY0jJp-102" value="User cart" style="whiteSpace=wrap;html=1;rounded=0;" parent="1" vertex="1">
          <mxGeometry x="1730" y="642.5" width="120" height="60" as="geometry" />
        </mxCell>
        <mxCell id="0JWoNW7KrvYmO7oY0jJp-106" value="Click order detail" style="edgeStyle=orthogonalEdgeStyle;rounded=0;orthogonalLoop=1;jettySize=auto;html=1;entryX=0.461;entryY=0.991;entryDx=0;entryDy=0;entryPerimeter=0;" parent="1" source="0JWoNW7KrvYmO7oY0jJp-104" target="0JWoNW7KrvYmO7oY0jJp-65" edge="1">
          <mxGeometry relative="1" as="geometry" />
        </mxCell>
        <mxCell id="0JWoNW7KrvYmO7oY0jJp-104" value="Checkout" style="whiteSpace=wrap;html=1;rounded=0;" parent="1" vertex="1">
          <mxGeometry x="1730" y="537.5" width="120" height="60" as="geometry" />
        </mxCell>
      </root>
    </mxGraphModel>
  </diagram>
</mxfile>
